<?xml version="1.0" standalone="no"?>
<!DOCTYPE svg PUBLIC "-//W3C//DTD SVG 20010904//EN"
 "http://www.w3.org/TR/2001/REC-SVG-20010904/DTD/svg10.dtd">
<svg version="1.0" xmlns="http://www.w3.org/2000/svg"
 width="1280.000000pt" height="640.000000pt" viewBox="0 0 1280.000000 640.000000"
 preserveAspectRatio="xMidYMid meet">
<g transform="translate(0.000000,640.000000) scale(0.100000,-0.100000)"
fill="#000000" stroke="none">
<path d="M5393 6025 c-38 -16 -80 -78 -122 -179 -26 -63 -51 -204 -73 -405 -6
-51 -28 -30 -84 80 -124 243 -280 388 -374 349 -22 -9 -34 -26 -54 -81 -33
-90 -35 -158 -3 -186 33 -31 194 -113 221 -113 19 0 33 -18 75 -94 29 -52 64
-129 79 -172 33 -96 85 -157 129 -152 23 2 33 13 55 58 28 56 30 68 68 432 12
122 31 185 65 222 44 48 106 29 175 -54 68 -81 94 -66 106 61 8 89 -9 132 -75
192 -59 53 -127 69 -188 42z"/>
<path d="M9676 6018 c-33 -51 -67 -141 -103 -273 -33 -125 -37 -153 -38 -260
0 -115 1 -122 30 -174 53 -96 108 -120 190 -82 69 31 99 72 130 174 36 117 38
178 8 208 l-22 22 -20 -24 c-21 -24 -41 -79 -41 -111 0 -21 -56 -68 -81 -68
-29 0 -65 43 -79 95 -18 66 -8 146 34 254 37 96 63 218 53 245 -9 23 -44 19
-61 -6z"/>
<path d="M8745 6012 c-44 -27 -95 -89 -122 -150 -30 -64 -59 -210 -70 -350 -4
-56 -12 -103 -18 -104 -5 0 -31 36 -57 81 -68 118 -139 211 -220 286 -73 67
-126 93 -171 81 -36 -9 -80 -101 -85 -178 -5 -69 3 -81 88 -136 30 -19 68 -45
83 -58 17 -15 42 -24 61 -24 21 0 40 -8 53 -22 43 -47 117 -174 144 -247 58
-154 155 -190 189 -70 11 38 25 177 40 389 11 166 21 207 56 250 43 50 84 40
170 -42 73 -69 112 -36 113 95 1 69 -14 101 -69 151 -73 65 -131 80 -185 48z"/>
<path d="M7035 5938 c-31 -69 -49 -142 -41 -170 3 -13 18 -30 34 -39 38 -21
224 -255 286 -358 55 -95 106 -214 137 -327 31 -113 37 -348 14 -527 -29 -224
-10 -272 56 -139 84 169 119 464 84 707 -37 262 -108 413 -340 722 -135 181
-137 183 -174 183 -29 0 -34 -5 -56 -52z"/>
<path d="M3842 5943 c-11 -21 -29 -69 -42 -108 -12 -38 -33 -96 -46 -127 -32
-76 -30 -98 10 -171 45 -81 49 -98 91 -387 19 -135 58 -389 85 -565 152 -988
255 -1811 315 -2515 22 -263 44 -644 43 -737 -2 -99 17 -139 60 -129 99 23
141 208 142 621 0 580 -117 1673 -301 2810 -48 295 -58 405 -38 405 8 0 46
-34 84 -75 78 -82 108 -94 125 -49 29 76 4 145 -209 579 -208 423 -243 485
-276 485 -18 0 -29 -10 -43 -37z"/>
<path d="M6400 5941 c-5 -11 -10 -25 -10 -31 0 -7 -20 -59 -45 -116 -73 -168
-74 -180 -31 -320 62 -205 116 -488 181 -954 19 -140 43 -314 54 -385 35 -235
50 -456 81 -1210 33 -795 95 -1175 236 -1462 71 -145 150 -232 307 -336 61
-42 131 -83 155 -92 50 -21 53 -34 10 -59 -18 -11 -100 -61 -181 -113 -278
-178 -401 -224 -602 -226 -110 -2 -124 0 -161 22 -49 28 -69 59 -59 92 4 13
54 71 110 130 109 113 116 123 161 234 36 91 36 126 -1 165 -40 41 -83 53
-180 48 -70 -4 -94 -10 -151 -39 -61 -30 -72 -41 -101 -94 -45 -81 -66 -152
-52 -176 15 -29 44 -23 73 15 32 43 130 79 203 74 68 -4 68 -25 0 -91 -86 -82
-150 -195 -182 -318 -29 -110 -16 -171 45 -223 138 -116 558 -46 800 133 109
81 307 270 340 325 19 31 39 56 45 57 5 0 66 1 135 3 235 4 420 42 661 136 70
28 130 50 134 50 4 0 67 27 140 60 74 33 223 94 332 135 109 42 236 92 283
112 148 63 400 143 535 169 121 24 142 26 295 19 216 -8 210 -9 241 21 30 28
83 132 123 235 13 35 30 79 37 96 24 59 51 55 -536 83 -126 6 -277 15 -335 20
-299 25 -377 32 -510 46 -429 42 -1002 114 -1117 139 -37 9 -26 28 44 75 97
65 215 181 379 371 173 201 275 297 361 341 l64 33 19 -23 c10 -12 28 -66 40
-120 30 -128 69 -237 111 -308 40 -68 157 -195 231 -252 104 -80 268 -127 499
-144 146 -10 181 -10 286 5 260 36 512 134 836 325 143 83 143 83 166 5 14
-50 95 -143 155 -178 63 -37 166 -57 271 -53 79 3 99 8 160 38 90 44 217 170
300 298 33 50 67 92 76 92 8 0 25 -20 37 -45 49 -100 194 -216 321 -256 131
-41 274 -24 354 42 66 54 136 215 193 439 40 157 40 167 14 263 -28 107 -94
267 -110 267 -19 0 -44 -48 -81 -154 -57 -164 -59 -204 -20 -294 55 -125 51
-150 -27 -172 -51 -14 -84 -13 -156 6 -130 34 -244 111 -287 196 -24 47 -24
61 1 149 21 77 16 113 -19 124 -26 8 -72 -16 -104 -54 -13 -16 -60 -87 -103
-157 -94 -153 -208 -276 -294 -317 -73 -36 -159 -51 -245 -43 -96 9 -138 23
-185 64 -56 47 -74 85 -61 124 6 17 11 48 11 69 0 49 -33 74 -84 65 -45 -9
-191 -81 -301 -148 -119 -74 -196 -111 -335 -165 -237 -92 -446 -130 -659
-120 -157 7 -267 33 -390 93 -76 37 -109 61 -176 127 -105 104 -143 179 -191
376 -36 149 -52 190 -86 228 -85 92 -257 -29 -583 -407 -259 -302 -424 -414
-925 -630 -94 -41 -177 -83 -193 -99 -17 -17 -51 -85 -90 -181 -35 -84 -68
-155 -74 -157 -14 -5 -26 36 -52 183 -38 212 -58 425 -91 984 -25 426 -38 616
-50 760 -62 726 -217 1669 -311 1887 -36 84 -85 118 -109 74z m1070 -3996
c276 -48 372 -62 475 -70 121 -8 591 -61 740 -83 88 -13 120 -21 120 -31 0 -9
-40 -32 -95 -57 -52 -23 -140 -62 -195 -86 -220 -99 -516 -182 -699 -197 -381
-31 -609 97 -746 417 -16 39 -30 77 -30 84 0 15 52 50 90 59 38 10 127 1 340
-36z"/>
<path d="M1757 5882 c-25 -27 -47 -99 -47 -150 0 -44 3 -49 78 -122 83 -79
119 -133 147 -215 21 -65 48 -243 40 -273 -5 -19 -43 -42 -203 -119 -837 -404
-1229 -602 -1367 -690 -103 -66 -143 -109 -161 -171 -17 -57 -12 -94 8 -74 7
7 20 12 30 12 11 0 72 29 136 64 580 316 2466 1191 2942 1366 130 47 172 74
200 130 22 44 26 112 7 128 -23 20 -226 -64 -1196 -492 -145 -65 -267 -113
-271 -109 -5 4 -10 76 -13 158 -5 167 -24 245 -89 352 -41 70 -184 223 -208
223 -9 0 -24 -8 -33 -18z"/>
<path d="M11175 5606 c-695 -233 -2584 -986 -3472 -1385 -383 -171 -458 -223
-526 -361 -79 -161 -68 -269 40 -371 68 -64 149 -119 176 -119 43 0 85 47 102
115 8 32 13 66 10 75 -3 8 -33 31 -68 50 -73 41 -177 140 -177 169 0 28 31 47
276 168 255 127 481 227 904 403 339 141 436 177 445 168 4 -3 -9 -46 -29 -95
-72 -183 -85 -349 -33 -455 38 -78 93 -104 164 -77 65 24 113 96 153 227 23
76 22 122 -4 158 -14 18 -15 18 -34 1 -11 -10 -32 -46 -47 -80 -34 -76 -51
-97 -81 -97 -16 0 -29 10 -40 32 -39 75 -38 83 17 253 28 88 55 170 60 183 11
29 35 40 587 261 780 311 1276 492 1507 546 133 32 212 61 244 91 33 31 43
134 16 164 -25 28 -42 25 -190 -24z"/>
<path d="M3348 5208 c-7 -13 -12 -48 -12 -79 1 -67 31 -138 98 -225 53 -71 60
-104 20 -104 -36 0 -91 28 -114 57 -10 13 -26 59 -36 101 -9 42 -30 110 -46
150 -43 105 -74 115 -103 33 -20 -59 -19 -90 7 -158 15 -39 22 -81 23 -126 0
-65 -2 -70 -33 -98 -40 -36 -81 -38 -102 -6 -9 14 -16 65 -21 142 -6 114 -28
205 -49 205 -5 0 -21 -25 -36 -56 -25 -51 -26 -59 -16 -107 6 -29 14 -95 17
-147 9 -127 20 -167 60 -207 63 -63 163 -37 212 57 35 65 38 67 76 33 48 -42
117 -67 167 -60 74 10 96 48 106 181 9 116 -5 164 -71 252 -30 38 -64 96 -76
127 -24 63 -49 75 -71 35z"/>
<path d="M6035 5155 c-49 -24 -227 -100 -395 -169 -572 -233 -1109 -471 -1174
-521 -73 -55 -141 -223 -94 -233 9 -2 43 15 76 38 153 104 814 392 1449 631
100 37 196 75 213 84 35 18 53 49 73 126 27 103 -7 113 -148 44z"/>
<path d="M11125 5001 c-29 -12 -74 -60 -95 -101 -33 -65 -50 -143 -65 -299 -9
-86 -17 -162 -20 -168 -10 -28 -26 -9 -75 86 -110 215 -255 351 -329 311 -27
-14 -70 -99 -77 -153 -7 -53 17 -87 89 -124 29 -14 64 -34 79 -44 14 -11 35
-19 47 -19 11 0 31 -14 44 -32 29 -38 88 -154 118 -231 11 -28 28 -60 36 -69
16 -18 59 -24 79 -10 34 23 56 115 89 385 36 301 55 324 172 215 28 -26 58
-48 66 -48 31 0 51 40 55 109 4 63 2 69 -30 111 -59 78 -122 106 -183 81z"/>
<path d="M11788 4951 c-76 -49 -183 -213 -195 -300 -13 -96 29 -150 175 -222
58 -29 82 -46 82 -60 0 -20 -185 -212 -265 -275 -27 -21 -99 -79 -160 -129
-137 -112 -381 -296 -587 -443 -198 -142 -231 -172 -226 -209 6 -50 44 -43
165 32 173 108 185 116 243 166 30 26 107 79 170 119 309 194 620 452 688 570
38 67 82 120 98 120 19 0 91 -36 131 -66 68 -51 121 -20 131 76 8 81 0 93 -94
155 -84 56 -86 58 -79 89 17 78 16 107 -4 187 -49 194 -153 266 -273 190z m93
-188 c32 -27 79 -113 79 -145 0 -24 -17 -23 -86 8 -155 67 -163 75 -126 120
41 50 86 56 133 17z"/>
<path d="M5866 4711 c-15 -22 -33 -58 -41 -78 -21 -55 -101 -347 -116 -421
-16 -84 -7 -212 20 -284 66 -174 245 -164 315 18 21 57 34 279 17 304 -8 12
-14 11 -35 -9 -19 -18 -30 -46 -43 -104 -19 -91 -38 -119 -76 -119 -33 0 -51
13 -71 57 -48 101 -41 185 35 415 56 168 68 252 37 258 -11 2 -26 -11 -42 -37z"/>
<path d="M2020 4583 c-61 -62 -79 -129 -106 -395 -4 -40 -10 -58 -19 -58 -8 0
-28 26 -45 58 -78 146 -181 252 -245 252 -38 0 -59 -21 -80 -79 -34 -97 -14
-143 85 -195 38 -20 75 -34 80 -31 18 11 56 -42 119 -169 51 -104 66 -127 88
-132 35 -9 54 4 70 51 12 36 19 97 42 375 11 128 15 146 42 160 24 14 63 -3
111 -46 31 -27 42 -32 57 -25 19 11 31 57 31 126 0 71 -82 145 -160 145 -24 0
-42 -10 -70 -37z"/>
<path d="M3232 4357 c-14 -16 -91 -270 -98 -322 -5 -35 -1 -46 34 -93 27 -35
54 -92 82 -175 156 -446 221 -613 357 -917 68 -150 183 -440 183 -459 0 -5
-25 -31 -55 -59 -121 -111 -292 -119 -493 -21 -115 56 -208 149 -274 275 -82
159 -119 310 -167 684 -40 308 -48 367 -67 458 -34 166 -122 437 -167 517 -18
32 -28 40 -52 40 -27 0 -31 -6 -86 -135 -67 -155 -77 -202 -60 -280 41 -183
65 -310 96 -510 68 -440 40 -699 -101 -912 -80 -120 -202 -206 -344 -243 -90
-24 -242 -16 -325 15 -77 30 -188 137 -233 226 -96 191 -100 375 -17 803 54
279 69 396 61 481 -11 126 -57 209 -108 197 -76 -19 -196 -164 -281 -339 -117
-239 -171 -421 -267 -896 -39 -191 -77 -369 -86 -397 -78 -237 -215 -307 -371
-188 -119 91 -219 333 -243 588 -6 61 -15 152 -21 203 -8 68 -7 116 2 185 13
104 3 149 -37 155 -37 5 -53 -27 -64 -133 -6 -55 -15 -128 -20 -161 -13 -80
-13 -226 1 -316 45 -314 69 -414 135 -556 101 -220 280 -388 428 -400 45 -4
57 0 101 30 65 45 146 157 184 258 47 121 76 249 131 571 55 322 96 504 141
617 31 79 84 167 114 192 17 14 18 12 12 -35 -3 -28 -19 -115 -36 -194 -72
-338 -67 -638 14 -914 38 -129 159 -281 288 -361 40 -25 108 -57 152 -72 68
-23 97 -28 190 -28 190 0 321 57 472 209 81 82 97 105 147 207 54 108 95 244
123 401 4 27 12 49 17 50 5 1 19 -37 32 -85 13 -48 35 -111 50 -140 47 -93 47
-98 4 -229 -78 -236 -110 -502 -92 -765 10 -130 15 -162 47 -253 80 -229 173
-364 337 -491 199 -154 437 -243 727 -271 150 -14 316 -3 481 33 113 24 484
145 660 216 140 56 444 198 565 265 208 114 542 343 723 496 59 50 126 170
161 289 68 229 68 512 0 685 -11 27 -67 133 -125 234 -58 102 -103 191 -100
199 5 12 12 11 45 -6 52 -26 67 -25 87 5 16 24 15 28 -15 88 -17 34 -90 135
-163 225 -73 90 -152 190 -175 224 -123 178 -147 165 -223 -120 -16 -62 -30
-124 -30 -139 0 -15 16 -48 39 -77 36 -47 118 -217 213 -445 55 -131 105 -228
188 -365 88 -147 114 -197 133 -262 13 -46 13 -54 0 -83 -39 -80 -292 -274
-583 -446 -441 -261 -917 -455 -1330 -542 -114 -24 -146 -27 -355 -27 -199 -1
-245 2 -340 22 -217 43 -345 98 -483 208 -120 94 -220 243 -281 419 -33 94
-35 109 -39 256 -3 130 0 174 18 273 27 141 36 150 93 83 172 -204 474 -320
673 -259 167 52 289 218 361 491 31 116 43 353 24 454 -28 142 -104 338 -228
590 -182 367 -197 421 -95 352 55 -37 102 -29 102 17 0 40 -79 171 -195 323
-67 88 -143 189 -170 225 -73 99 -106 120 -133 87z"/>
<path d="M4828 4043 c-51 -59 -148 -275 -148 -330 0 -45 24 -66 185 -163 213
-127 218 -129 260 -79 53 64 135 253 135 313 0 40 -11 50 -112 104 -42 22
-123 70 -179 106 -56 36 -108 66 -114 66 -7 0 -19 -8 -27 -17z"/>
<path d="M9757 3950 c-95 -15 -136 -30 -167 -58 -16 -15 -61 -87 -100 -159
-55 -102 -71 -140 -68 -165 3 -33 3 -33 53 -30 28 1 156 3 285 4 223 2 310 -6
317 -27 1 -6 -115 -69 -260 -142 -299 -150 -347 -185 -302 -223 13 -10 61 -4
262 33 293 54 339 73 429 170 73 78 213 312 233 389 20 74 8 99 -61 134 -104
53 -475 97 -621 74z"/>
<path d="M734 3910 c-29 -12 -73 -67 -96 -120 -32 -75 -49 -167 -61 -338 -7
-92 -16 -163 -22 -164 -5 0 -26 28 -45 63 -53 95 -95 154 -168 231 -70 74 -96
92 -153 102 -52 9 -82 -18 -103 -92 -21 -75 -20 -125 1 -150 24 -27 149 -100
197 -114 53 -16 106 -85 172 -223 28 -61 59 -117 67 -124 9 -7 28 -11 44 -9
57 6 70 68 92 423 14 219 18 240 48 275 40 48 91 38 150 -29 44 -50 63 -37 80
55 16 84 10 115 -30 161 -49 55 -116 76 -173 53z"/>
<path d="M1948 3508 c-45 -70 -74 -157 -145 -447 -45 -183 -44 -274 3 -367 50
-100 124 -129 199 -78 76 51 93 89 121 275 16 102 16 112 1 126 -32 32 -57
-10 -94 -157 -5 -22 -19 -40 -36 -50 -24 -13 -30 -13 -54 0 -46 26 -68 84 -68
180 0 76 7 107 63 288 34 111 62 214 62 227 0 32 -32 34 -52 3z"/>
<path d="M5389 2705 c-31 -17 -86 -98 -116 -170 -29 -69 -42 -138 -58 -294 -8
-73 -16 -135 -19 -138 -10 -11 -25 10 -59 82 -101 212 -290 381 -375 336 -46
-24 -86 -173 -63 -229 8 -18 28 -36 55 -49 23 -12 64 -40 91 -63 37 -32 53
-40 71 -36 19 5 29 -1 55 -36 32 -44 149 -276 149 -295 0 -23 71 -74 98 -71
53 6 65 63 103 488 8 99 30 189 55 228 27 42 106 18 173 -52 38 -39 75 -47 89
-18 14 27 22 150 12 178 -13 32 -97 122 -132 140 -34 18 -95 17 -129 -1z"/>
<path d="M10808 2308 c-38 -58 -105 -229 -137 -353 -38 -144 -22 -237 52 -302
50 -43 87 -50 141 -23 77 37 148 172 163 307 5 43 3 54 -11 59 -24 9 -46 -14
-77 -83 -44 -99 -99 -118 -148 -52 -43 58 -39 97 23 269 56 152 67 218 40 227
-6 2 -27 -20 -46 -49z"/>
<path d="M12176 2091 c-87 -57 -139 -215 -166 -503 -8 -83 -17 -128 -24 -128
-6 0 -29 35 -50 78 -115 233 -274 389 -384 380 -34 -3 -39 -8 -66 -62 -17 -33
-31 -80 -34 -110 -5 -65 17 -95 102 -138 33 -17 72 -39 85 -50 17 -13 33 -17
52 -13 23 5 31 0 65 -47 20 -29 64 -109 97 -178 32 -69 70 -137 85 -152 33
-36 85 -38 106 -5 22 33 56 257 56 366 0 120 16 262 34 306 8 18 26 41 39 50
24 15 28 15 59 0 18 -10 56 -42 85 -73 50 -53 53 -54 75 -40 27 18 51 103 44
159 -9 83 -111 179 -190 179 -24 0 -53 -8 -70 -19z"/>
<path d="M3702 1843 c-31 -45 -47 -80 -106 -235 -101 -268 -120 -396 -71 -487
52 -95 144 -122 225 -66 77 53 131 152 145 265 6 47 4 59 -13 80 l-20 25 -22
-20 c-13 -11 -35 -48 -51 -82 -39 -88 -80 -105 -131 -56 -16 15 -28 37 -28 52
0 14 34 126 76 249 76 224 81 254 52 289 -16 20 -35 15 -56 -14z"/>
<path d="M2360 1641 c-25 -9 -353 -154 -729 -321 l-684 -304 -18 -40 c-26 -60
-35 -141 -16 -149 8 -3 52 12 98 34 46 21 92 39 102 39 10 0 33 10 50 23 18
13 66 38 107 56 666 289 730 315 730 295 0 -4 -24 -70 -54 -148 -140 -365
-148 -591 -24 -673 100 -67 220 -6 287 147 27 61 65 216 57 235 -10 26 -46 17
-64 -16 -55 -99 -81 -136 -111 -156 -42 -28 -71 -29 -104 -2 -62 48 -55 152
23 354 23 61 61 162 84 225 l41 114 100 38 c162 62 163 62 190 121 31 65 33
122 6 137 -24 12 -16 13 -71 -9z"/>
<path d="M9754 1429 c-90 -26 -146 -156 -215 -491 -25 -126 -41 -138 -78 -60
-129 267 -304 420 -386 338 -44 -44 -72 -192 -42 -228 6 -8 34 -27 60 -42 26
-15 63 -41 81 -57 19 -16 45 -29 59 -29 16 0 37 -11 52 -27 24 -26 135 -241
135 -262 0 -18 62 -61 87 -61 37 0 79 48 91 106 6 27 22 128 36 224 34 235 62
326 106 350 31 17 60 3 111 -52 53 -58 75 -59 102 -4 41 86 30 157 -35 231
-39 45 -91 76 -120 74 -7 0 -27 -5 -44 -10z"/>
<path d="M10692 1283 c-156 -270 -158 -274 -94 -335 59 -56 307 -218 335 -218
43 0 76 39 134 159 39 80 58 131 61 166 4 50 3 50 -45 87 -26 20 -86 60 -133
88 -47 29 -104 68 -127 86 -64 52 -85 47 -131 -33z"/>
</g>
</svg>
