<?xml version="1.0" encoding="utf-8"?>
<!-- Generator: Adobe Illustrator 13.0.2, SVG Export Plug-In . SVG Version: 6.00 Build 14948)  -->
<!DOCTYPE svg PUBLIC "-//W3C//DTD SVG 1.0//EN" "http://www.w3.org/TR/2001/REC-SVG-20010904/DTD/svg10.dtd">
<svg version="1.0" id="Ebene_1" xmlns="http://www.w3.org/2000/svg" xmlns:xlink="http://www.w3.org/1999/xlink" x="0px" y="0px"
	 width="259.904px" height="527.241px" viewBox="0 0 259.904 527.241" enable-background="new 0 0 259.904 527.241"
	 xml:space="preserve">
<path fill="#CF941B" d="M242.941,444.407c1.14-0.463,1.711-1.359,1.711-2.672c0-1.266-0.513-2.121-1.529-2.578
	c-0.551-0.252-1.271-0.375-2.174-0.375c-0.606,0-0.981,0.047-1.116,0.129c-0.138,0.088-0.211,0.299-0.211,0.621v5.35
	C241.166,444.823,242.276,444.671,242.941,444.407L242.941,444.407z M235.576,451.808c0.835-0.07,1.362-0.24,1.564-0.475
	c0.211-0.246,0.311-0.809,0.311-1.705v-9.299c0-0.75-0.114-1.236-0.349-1.471c-0.229-0.234-0.732-0.375-1.526-0.445v-0.398h5.965
	c1.242,0,2.265,0.158,3.103,0.475c1.567,0.592,2.344,1.682,2.344,3.27c0,1.066-0.346,1.887-1.037,2.449
	c-0.691,0.58-1.638,0.955-2.836,1.131l4.424,5.449c0.272,0.334,0.548,0.58,0.82,0.721c0.27,0.158,0.621,0.258,1.046,0.299v0.398
	h-3.513l-5.388-6.627l-0.882,0.064v4.236c0,0.785,0.129,1.289,0.369,1.512c0.237,0.205,0.765,0.346,1.579,0.416v0.398h-5.994
	V451.808L235.576,451.808z"/>
<path fill="#CF941B" d="M229.494,445.245L229.494,445.245L229.494,445.245c0.003-3.387,1.377-6.457,3.598-8.678
	s5.285-3.598,8.669-3.598l0,0h0.006l0,0l0,0c3.393,0,6.463,1.377,8.684,3.598c2.218,2.221,3.592,5.291,3.592,8.678h0.003l0,0v0.006
	h-0.003c0,3.387-1.374,6.457-3.595,8.678c-2.221,2.215-5.288,3.586-8.678,3.592l0,0h-0.003h-0.003l0,0
	c-3.384-0.006-6.451-1.377-8.672-3.598c-2.221-2.215-3.595-5.285-3.598-8.672l0,0V445.245L229.494,445.245z M230.473,445.245h0.003
	l0,0v0.006h-0.003c0,3.117,1.266,5.941,3.308,7.98c2.045,2.045,4.869,3.311,7.983,3.311l0,0h0.003h0.003l0,0
	c3.12,0,5.944-1.266,7.989-3.311c2.042-2.039,3.308-4.863,3.308-7.98h-0.003v-0.006l0,0h0.003c0-3.117-1.266-5.941-3.308-7.986
	c-2.045-2.045-4.869-3.311-7.992-3.311l0,0l0,0h-0.006l0,0c-3.111,0-5.936,1.266-7.978,3.311
	C231.738,439.304,230.473,442.128,230.473,445.245L230.473,445.245z"/>
<path fill="#CF941B" d="M162.044,256.894c0,0-13.052,17.134-30.621,16.548C131.423,273.442,163.046,283.04,162.044,256.894
	L162.044,256.894z"/>
<path fill="#CF941B" d="M178.614,250.299l5.593-8.78c9.832,12.144,7.345,78.675,7.345,78.675
	c15.662-69.678-4.685-104.496-4.685-104.496c-2.256,17.033-13.172,28.346-20.625,33.807c-1.277,0.939,4.119,8.782,8.651,26.351
	c0,0,9.457,31.289-12.894,31.301c0,0,9.27-28.506-14.719-22.301c-23.991,6.211-11.338,26.08-11.338,26.08s11.338-8.08,14.18-1.143
	c0,0-16.307,8.643-21.448,16.09c-5.143,7.447-3.412,15.756-3.828,18.686c-0.516,3.709-3.271,17.262-32.386,28.061
	c0,0,24.461,11.438,36.48-10.447c11.897-21.65-4.975-23.186,25.099-41.496c0,0,27.647,5.813,30.967-24.328
	C188.276,266.698,178.614,250.299,178.614,250.299L178.614,250.299z"/>
<polygon fill="#CF941B" points="114.653,198.022 105.094,188.47 93.879,199.682 103.43,209.234 114.653,198.022 "/>
<polygon fill="#CF941B" points="169.389,174.646 159.835,165.094 148.623,176.306 158.177,185.858 169.389,174.646 "/>
<polygon fill="#CF941B" points="111.743,353.347 102.182,343.796 90.968,355.022 100.526,364.573 111.743,353.347 "/>
<path fill="#CF941B" d="M159.243,331.315l1.667-3.545c0,0-1.523-4.242-6.059,0.691c-6.425,6.99-1.646,12.246-1.646,12.246
	s-7.295,9.27-3.557,14.35c3.735,5.08,22.415-2.496,27.352-21.211c0,0-13.535,15.287-20.288,14.906c0,0-3.961-0.281-0.023-5.701
	c3.949-5.42,8.552-6.416,5.543-12.264l-5.247,5.156c0,0-2.438-2.279-0.923-4.406C157.585,329.399,159.243,331.315,159.243,331.315
	L159.243,331.315z"/>
<path fill="#CF941B" d="M78.103,358.726c2.764,8.361,5.751,11.596,8.792,14.361c8.978,8.162,23.672,7.26,23.672,7.26
	c64.421-3.07,85.752-59.877,85.752-59.877c-13.093,54.416-57.211,80.098-95.666,76.559c-21.048-1.928-30.614-20.701-34.485-36.949
	c-4.701-17.432-4.04-52.658-4.04-52.658c-3.842-167.657,60.949-265.525,60.949-265.525c-46.658,93.22-51.812,200.958-50.622,257.955
	c0,0-0.296,28.793,1.638,40.822C74.092,340.673,75.939,352.978,78.103,358.726L78.103,358.726z"/>
<path fill="#CF941B" d="M88.071,323.704c6.702,1.641,21.381-4.629,27.476-12.316c8.999-11.373-7.264-22.764-7.264-22.764
	l7.663-20.719c0,0,12.214,6.961,13.95,26.584c1.897,21.34-11.624,38.555-31.872,46.26c-17.903,6.814-24.551-12.451-22.267-29.836
	l2.846-22.74C79.547,282.021,75.961,320.71,88.071,323.704L88.071,323.704z"/>
<path fill="#CF941B" d="M145.86,133.761c-5.218,8.029-18.517,20.099-15.227,40.567c5.281,32.849-10.988,59.227-34.036,56.528
	c0,0,35.525,4.74,44.528-12.316c8.997-17.048-4.731-40.264,2.845-49.73c5.678-7.1,17.068-23.44,17.048-33.636
	c-0.021-9.003-3.788-20.836-6.63-27.466c-6.161-16.581-8.42-21.904-10.456-32.386C140.651,58.446,137.962,0,137.962,0v74.442
	c0,0-1.107,21.428,7.421,37.062C147.7,115.739,152.021,124.288,145.86,133.761L145.86,133.761z"/>
<path fill="#CF941B" d="M102.12,268.849c-1.764,0-3.271,1.084-3.898,2.619c-3.532,5.953-1.184,22.055-1.184,22.055
	s-2.94-9.117-5.974-13.412c-0.661-1.459-2.128-2.479-3.835-2.479c-2.328,0-4.213,1.881-4.213,4.219c0,2.314,1.885,4.213,4.213,4.213
	c1.305,0,2.481-0.598,3.25-1.535c2.355,4.4,7.63,15.328,8.665,19.693c0,0-0.974-24.768,1.601-27.193
	c0.431,0.158,0.895,0.24,1.374,0.24c2.331,0,4.214-1.881,4.214-4.213C106.334,270.729,104.451,268.849,102.12,268.849
	L102.12,268.849z"/>
<path fill="#CF941B" d="M105.892,125.571c13.428-20.208,21.498-15.973,21.498-15.973s-6.272,13.146-15.161,27.951
	c-1.418,2.373-5.209,0-5.209,0c-2.716-1.235-3.715-3.564-3.702-5.282C103.528,128.667,105.892,125.571,105.892,125.571
	L105.892,125.571z M104.82,171.01c10.455-14.682,27.946-41.854,32.354-54.543c5.426-15.671-5.729-33.715-30.558-7.481
	c-23.317,24.623-5.89,47.962-5.89,47.962s-34.148,77.263-8.864,100.913c19.333,18.083,59.685,3.788,80.339-23.095
	c0,0,22.646-21.139,13.649-73.229c-7.79-45.1-32.467-96.642-38.944-109.663v22.731c6.63,17.569,31.945,85.676,33.434,104.837
	c1.579,20.325-19.099,60.769-61.005,66.101c-37.639,4.799-32.238-37.761-23.736-58.742C98.25,180.309,104.82,171.01,104.82,171.01
	L104.82,171.01z"/>
<path fill="#CF941B" d="M66.246,456.22c3.813,0,5.638,0.117,7.027,0.393c4.033,0.832,6.353,5.309,6.353,10.67
	c0,4.207-1.433,6.363-3.208,7.412c-1.764,1.061-3.87,1.107-5.251,1.107c-8.023,0-8.023-3.035-8.023-6.967V456.22H66.246
	L66.246,456.22z M55.734,437.476c2.821,0.111,2.821,0.938,2.821,4.477v29.977c0,3.434,0,4.535-2.871,4.535v0.393h15.374
	c2.435,0,5.31,0,7.692-1.553c2.319-1.488,5.251-5.027,5.251-10.395c0-4.371-2.049-6.803-3.157-7.857
	c-1.934-1.875-4.033-2.268-5.534-2.537c1.169-0.668,4.982-2.824,4.982-7.969c0-3.756-2.21-6.861-5.476-8.355
	c-2.158-0.996-4.588-1.107-8.741-1.107H55.734V437.476L55.734,437.476z M63.144,437.921h1.058c1.655,0,4.646-0.053,7.189,1.107
	c2.54,1.154,4.696,3.422,4.696,7.957c0,1.77-0.437,8.414-8.123,8.414h-4.821V437.921L63.144,437.921z"/>
<path fill="#CF941B" d="M242.147,506.61c3.814,0,5.64,0.117,7.028,0.387c4.034,0.832,6.352,5.309,6.352,10.676
	c0,4.201-1.433,6.357-3.208,7.406c-1.764,1.061-3.87,1.113-5.25,1.113c-8.024,0-8.024-3.041-8.024-6.973V506.61H242.147
	L242.147,506.61z M231.636,487.866c2.821,0.105,2.821,0.938,2.821,4.471v29.977c0,3.434,0,4.541-2.871,4.541v0.387h15.375
	c2.435,0,5.309,0,7.69-1.547c2.32-1.488,5.253-5.033,5.253-10.4c0-4.371-2.048-6.803-3.158-7.857
	c-1.931-1.875-4.031-2.262-5.531-2.537c1.166-0.662,4.98-2.818,4.98-7.963c0-3.762-2.212-6.861-5.476-8.355
	c-2.156-0.996-4.588-1.113-8.742-1.113h-10.342V487.866L231.636,487.866z M239.045,488.306h1.058c1.655,0,4.646-0.053,7.189,1.113
	c2.54,1.154,4.696,3.416,4.696,7.957c0,1.764-0.437,8.408-8.124,8.408h-4.819V488.306L239.045,488.306z"/>
<path fill="#CF941B" d="M121.392,476.856v-6.135c-5.534,6.193-11.284,6.41-13.72,6.41c-6.637,0-12.833-3.539-12.833-12.498v-23.842
	c0-2.713-0.274-3.381-2.934-3.316v-0.393h10.567v0.393c-1.545,0-3.038,0-3.038,3.041v21.844c0,1.775,0.113,4.26,0.938,6.305
	c2.046,5.039,6.472,6.422,9.567,6.422c6.472,0,10.122-4.26,11.454-5.807v-26.941c0-3.65-0.274-4.863-2.55-4.863h-0.382v-0.393
	h10.455v0.393c-1.664,0.053-2.937,0.053-2.937,2.707v32.42c0,2.484,0,3.92,2.937,3.861v0.393H121.392L121.392,476.856z"/>
<path fill="#CF941B" d="M138.041,437.476c1.875,0.053,2.868,0.27,2.868,3.598v31.635c0,3.047-0.331,3.65-2.868,3.756v0.393h10.286
	v-0.393c-1.881-0.047-2.821-0.281-2.821-3.428v-15.205h3.205c0.281,0,1.717,0,2.048-0.059l1.494-0.059l3.981,6.141
	c0,0.059,0.108,0.164,0.108,0.281c0.108,0.164,3.768,5.584,6.753,9.234c2.763,3.369,5.692,3.873,7.793,3.873
	c2.329,0,4.371-0.504,5.376-0.885c1.096-0.445,1.875-0.885,3.029-1.775l-0.161-0.545c-0.331,0.164-0.993,0.604-1.875,0.99
	c-0.612,0.275-1.277,0.551-2.713,0.551c-3.208,0-5.757-2.209-6.58-3.205c-3.094-3.539-7.805-10.4-8.361-11.391l-0.217-0.387
	l-2.821-4.318c3.595-1.939,6.973-5.748,6.973-10.395c0-4.371-2.382-7.025-5.751-8.074c-2.273-0.727-4.148-0.727-8.464-0.727h-11.282
	V437.476L138.041,437.476z M145.506,438.144h3.264c3.814,0,5.915,0.885,7.523,2.49c2.156,2.203,3.044,5.25,3.044,7.74
	c0,3.867-2.106,6.246-4.046,7.301c-1.321,0.715-4.201,1.102-5.637,1.102h-4.148V438.144L145.506,438.144z"/>
<path fill="#CF941B" d="M195.281,437.083v0.393c-2.979,0.053-3.044,1.33-3.044,3.539v33.85c0,3.375-0.217,7.635-0.656,8.9
	c-0.334,0.996-0.946,2.602-2.268,3.938c-1.327,1.318-3.208,2.484-6.196,2.484c-2.432,0-4.154-0.604-4.869-0.832l0.056-0.434
	c0.439,0.1,1.163,0.205,2.159,0.205c3.592,0,5.476-2.092,6.363-4.641c0.987-2.818,0.829-5.748,0.829-6.686v-36.621
	c0-2.373-0.064-3.768-3.044-3.703v-0.393H195.281L195.281,437.083z"/>
<path fill="#CF941B" d="M22.843,509.106l5.757,14.162c0.05,0.059,0.163,0.387,0.274,0.604c0.278,0.668,0.604,1.611,0.604,2.168
	c0,0.111-0.051,0.99-1.27,0.99v0.023h9.296v-0.023c-2.493,0-3.489-2.268-4.044-3.762l-0.212-0.604
	c-0.111-0.17-0.17-0.387-0.17-0.445L18.86,487.046h-0.664L3.76,523.433c-0.776,1.934-1.383,3.545-3.76,3.598v0.023h5.917v-0.023
	c-0.439,0-1.327,0.064-1.327-0.879c0-0.393,0.057-0.668,0.331-1.283c0-0.059,0.17-0.439,0.281-0.715l6.029-15.047H22.843
	L22.843,509.106z M11.613,508.011l5.364-13.553l5.372,13.553H11.613L11.613,508.011z"/>
<path fill="#CF941B" d="M43.087,527.03c2.713,0,2.984-1.107,2.984-3.1v-32.572c0-2.988-0.828-3.264-3.035-3.322v-0.381H53.71v0.381
	c-3.044-0.047-3.044,1.383-3.044,3.598v27.926c0,4.928,2.208,6.527,7.633,6.527h4.866c5.476,0,6.696-2.871,6.97-8.232h0.39v9.199
	H43.087V527.03L43.087,527.03z"/>
<path fill="#CF941B" d="M118.644,509.106l5.754,14.162c0.05,0.059,0.161,0.387,0.272,0.604c0.283,0.668,0.606,1.611,0.606,2.168
	c0,0.111-0.05,0.99-1.269,0.99v0.023h9.291v-0.023c-2.488,0-3.487-2.268-4.032-3.762l-0.224-0.604
	c-0.108-0.17-0.168-0.387-0.168-0.445l-14.213-35.174h-0.664L99.56,523.433c-0.775,1.934-1.381,3.545-3.762,3.598v0.023h5.919
	v-0.023c-0.444,0-1.332,0.064-1.332-0.879c0-0.393,0.059-0.668,0.333-1.283c0-0.059,0.17-0.439,0.281-0.715l6.028-15.047H118.644
	L118.644,509.106z M107.414,508.011l5.37-13.553l5.364,13.553H107.414L107.414,508.011z"/>
<path fill="#CF941B" d="M140.376,488.036c1.884,0.059,2.889,0.275,2.889,3.598v31.635c0,3.047-0.34,3.65-2.889,3.762v0.023h10.289
	v-0.023c-1.881-0.053-2.821-0.27-2.821-3.428v-15.211h3.211c0.281,0,1.711,0,2.042-0.053l1.494-0.053l3.981,6.129
	c0,0.064,0.108,0.176,0.108,0.281c0.114,0.164,3.773,5.59,6.753,9.234c1.318,1.611,2.675,2.566,3.961,3.123h8.821
	c0.141-0.047,0.27-0.088,0.384-0.135c1.104-0.439,1.878-0.879,3.038-1.77l-0.164-0.545c-0.334,0.158-0.996,0.604-1.884,0.996
	c-0.606,0.27-1.271,0.551-2.707,0.551c-3.211,0-5.748-2.221-6.586-3.217c-3.097-3.533-7.793-10.395-8.347-11.391l-0.226-0.381
	l-2.818-4.324c3.598-1.934,6.976-5.748,6.976-10.395c0-4.371-2.382-7.025-5.757-8.074c-2.265-0.715-4.143-0.715-8.458-0.715h-11.291
	V488.036L140.376,488.036z M147.844,488.704h3.27c3.809,0,5.915,0.885,7.518,2.49c2.156,2.203,3.044,5.25,3.044,7.74
	c0,3.873-2.106,6.246-4.04,7.301c-1.327,0.721-4.207,1.102-5.643,1.102h-4.148V488.704L147.844,488.704z"/>
<path fill="#CF941B" d="M209.798,509.106l5.748,14.162c0.053,0.059,0.167,0.387,0.275,0.604c0.281,0.668,0.612,1.611,0.612,2.168
	c0,0.111-0.056,0.99-1.274,0.99v0.023h9.29v-0.023c-2.487,0-3.483-2.268-4.034-3.762l-0.223-0.604
	c-0.105-0.17-0.164-0.387-0.164-0.445l-14.215-35.174h-0.671l-14.438,36.387c-0.765,1.934-1.377,3.545-3.756,3.598v0.023h5.921
	v-0.023c-0.445,0-1.333,0.064-1.333-0.879c0-0.393,0.056-0.668,0.331-1.283c0-0.059,0.173-0.439,0.281-0.715l6.032-15.047H209.798
	L209.798,509.106z M198.565,508.011l5.364-13.553l5.37,13.553H198.565L198.565,508.011z"/>
</svg>
